<?xml version="1.0" standalone="no"?>
<!DOCTYPE svg PUBLIC "-//W3C//DTD SVG 20010904//EN"
 "http://www.w3.org/TR/2001/REC-SVG-20010904/DTD/svg10.dtd">
<svg version="1.0" xmlns="http://www.w3.org/2000/svg"
 width="512.000000pt" height="512.000000pt" viewBox="0 0 512.000000 512.000000"
 preserveAspectRatio="xMidYMid meet">

<g transform="translate(0.000000,512.000000) scale(0.100000,-0.100000)"
fill="#000000" stroke="none">
<path d="M1233 4629 c-43 -12 -90 -62 -103 -107 -6 -22 -10 -188 -10 -419 l0
-383 -107 -51 c-165 -79 -236 -163 -263 -307 -17 -94 2 -175 75 -323 105 -213
269 -391 466 -506 90 -52 89 -38 1 -138 -165 -185 -293 -447 -354 -725 -22
-100 -23 -125 -23 -510 l0 -405 29 -59 c39 -79 102 -140 184 -179 l67 -32 935
0 935 0 60 24 c83 33 173 124 205 206 21 53 24 81 28 231 l4 171 92 6 c176 12
315 73 432 192 153 154 211 359 168 586 -33 174 -11 224 186 424 82 84 154
165 160 180 15 39 12 102 -5 136 -38 73 -149 93 -221 40 -66 -48 -300 -293
-336 -351 -81 -129 -103 -221 -93 -381 14 -223 12 -279 -14 -329 -32 -61 -86
-117 -146 -148 -40 -20 -68 -27 -140 -30 l-91 -4 -12 108 c-35 312 -169 616
-380 860 l-70 81 60 33 c198 108 374 295 483 511 95 188 108 308 46 433 -42
85 -106 142 -237 208 l-104 53 0 135 0 135 -215 215 -215 215 -94 -94 -93 -93
-49 17 c-197 67 -439 71 -647 10 l-82 -24 -190 189 c-153 151 -198 190 -230
199 -46 12 -49 12 -92 0z m685 -1225 c134 -90 148 -103 166 -145 22 -55 17
-100 -17 -150 -40 -60 -72 -69 -246 -69 -136 0 -157 2 -190 21 -64 36 -85 78
-89 183 -6 144 21 209 102 248 74 34 109 23 274 -88z m717 73 c22 -12 50 -38
62 -56 21 -31 23 -46 23 -151 0 -105 -2 -120 -23 -151 -12 -18 -38 -44 -56
-56 -32 -21 -45 -23 -183 -23 -173 0 -204 9 -246 72 -31 47 -35 116 -9 165 16
31 232 190 288 212 42 17 102 12 144 -12z"/>
</g>
</svg>
